<?xml version="1.0" encoding="UTF-8"?>
<svg xmlns:cc="http://creativecommons.org/ns#" xmlns:dc="http://purl.org/dc/elements/1.1/" height="48px"
     xmlns:rdf="http://www.w3.org/1999/02/22-rdf-syntax-ns#" version="1.1" width="48px"
     xmlns:xlink="http://www.w3.org/1999/xlink" xmlns="http://www.w3.org/2000/svg">
  <defs>
    <radialGradient cx="605.71429" cy="486.64789" fx="605.71429" fy="486.64789"
                    gradientTransform="matrix(-2.774389,0,0,1.969706,112.7623,-872.8854)" gradientUnits="userSpaceOnUse"
                    xlink:href="#linearGradient5060" id="radialGradient6719" r="117.14286"/>
    <linearGradient id="linearGradient5060">
      <stop offset="0" style="stop-color:black;stop-opacity:1;"/>
      <stop offset="1" style="stop-color:black;stop-opacity:0;"/>
    </linearGradient>
    <radialGradient cx="605.71429" cy="486.64789" fx="605.71429" fy="486.64789"
                    gradientTransform="matrix(2.774389,0,0,1.969706,-1891.633,-872.8854)" gradientUnits="userSpaceOnUse"
                    xlink:href="#linearGradient5060" id="radialGradient6717" r="117.14286"/>
    <linearGradient id="linearGradient5048">
      <stop offset="0" style="stop-color:black;stop-opacity:0;"/>
      <stop offset="0.5" style="stop-color:black;stop-opacity:1;"/>
      <stop offset="1" style="stop-color:black;stop-opacity:0;"/>
    </linearGradient>
    <linearGradient gradientTransform="matrix(2.774389,0,0,1.969706,-1892.179,-872.8854)" gradientUnits="userSpaceOnUse"
                    xlink:href="#linearGradient5048" id="linearGradient6715" x1="302.85715" x2="302.85715"
                    y1="366.64789" y2="609.50507"/>
    <linearGradient id="linearGradient2116">
      <stop offset="0" style="stop-color:#ffffff;stop-opacity:1;"/>
      <stop offset="1" style="stop-color:#ffffff;stop-opacity:0;"/>
    </linearGradient>
    <linearGradient id="linearGradient2094">
      <stop offset="0.0000000" style="stop-color:#d6e3f0;stop-opacity:1.0000000;"/>
      <stop offset="1.0000000" style="stop-color:#95b1cf;stop-opacity:1.0000000;"/>
    </linearGradient>
    <linearGradient id="linearGradient2803">
      <stop offset="0" style="stop-color:#ffffff;stop-opacity:1;"/>
      <stop offset="1.0000000" style="stop-color:#cbcbcb;stop-opacity:1.0000000;"/>
    </linearGradient>
    <linearGradient id="linearGradient2795">
      <stop offset="0.0000000" style="stop-color:#000000;stop-opacity:0.068627454;"/>
      <stop offset="1.0000000" style="stop-color:#ffffff;stop-opacity:1.0000000;"/>
    </linearGradient>
    <linearGradient gradientTransform="matrix(0.254000,0.000000,1.822151e-16,3.759813,0.788629,0.148567)"
                    gradientUnits="userSpaceOnUse" xlink:href="#linearGradient2795" id="linearGradient2801"
                    x1="35.433035" x2="41.219128" y1="4.9530050" y2="4.9530048"/>
    <linearGradient gradientTransform="matrix(2.262742,0.000000,0.000000,0.441942,1.000000,-0.875000)"
                    gradientUnits="userSpaceOnUse" xlink:href="#linearGradient2803" id="linearGradient2813"
                    x1="10.496115" x2="10.219901" y1="93.338043" y2="84.287079"/>
    <linearGradient gradientTransform="matrix(0.957750,0.000000,0.000000,1.027989,1.000000,-0.571911)"
                    gradientUnits="userSpaceOnUse" xlink:href="#linearGradient2094" id="linearGradient2100"
                    x1="6.5871811" x2="14.511404" y1="22.132999" y2="22.132999"/>
    <linearGradient gradientTransform="matrix(1.025428,0.000000,0.000000,0.957303,0.000000,-0.806758)"
                    gradientUnits="userSpaceOnUse" xlink:href="#linearGradient2116" id="linearGradient2112"
                    x1="73.361984" x2="-2.7582901" y1="26.652197" y2="21.270376"/>
    <linearGradient id="linearGradient4440">
      <stop offset="0" style="stop-color:#7d7d7d;stop-opacity:1;"/>
      <stop offset="0.50000000" style="stop-color:#b1b1b1;stop-opacity:1.0000000;"/>
      <stop offset="1.0000000" style="stop-color:#686868;stop-opacity:1.0000000;"/>
    </linearGradient>
    <linearGradient id="linearGradient4454">
      <stop offset="0.0000000" style="stop-color:#729fcf;stop-opacity:0.20784314;"/>
      <stop offset="1.0000000" style="stop-color:#729fcf;stop-opacity:0.67619050;"/>
    </linearGradient>
    <linearGradient id="linearGradient4467">
      <stop offset="0" style="stop-color:#ffffff;stop-opacity:1;"/>
      <stop offset="1.0000000" style="stop-color:#ffffff;stop-opacity:0.24761905;"/>
    </linearGradient>
    <linearGradient id="linearGradient2366">
      <stop offset="0" style="stop-color:#ffffff;stop-opacity:1;"/>
      <stop offset="0.50000000" style="stop-color:#ffffff;stop-opacity:0.21904762;"/>
      <stop offset="1.0000000" style="stop-color:#ffffff;stop-opacity:1.0000000;"/>
    </linearGradient>
    <linearGradient id="linearGradient2846">
      <stop offset="0.0000000" style="stop-color:#8a8a8a;stop-opacity:1.0000000;"/>
      <stop offset="1.0000000" style="stop-color:#484848;stop-opacity:1.0000000;"/>
    </linearGradient>
    <radialGradient cx="24.130018" cy="37.967922" fx="24.130018" fy="37.967922"
                    gradientTransform="matrix(1,0,0,0.237968,0,28.93278)" gradientUnits="userSpaceOnUse"
                    xlink:href="#linearGradient5060" id="radialGradient1527" r="16.528622"/>
    <linearGradient gradientUnits="userSpaceOnUse" xlink:href="#linearGradient2846" id="linearGradient1529"
                    x1="27.366341" x2="31.335964" y1="26.580296" y2="30.557772"/>
    <linearGradient gradientTransform="matrix(1.334593,0,0,1.291292,-6.973842,-7.460658)" gradientUnits="userSpaceOnUse"
                    xlink:href="#linearGradient4440" id="linearGradient1531" x1="30.656250" x2="33.218750"
                    y1="34.000000" y2="31.062500"/>
    <linearGradient gradientUnits="userSpaceOnUse" xlink:href="#linearGradient2366" id="linearGradient1533"
                    x1="18.292673" x2="17.500893" y1="13.602121" y2="25.743469"/>
    <radialGradient cx="18.240929" cy="21.817987" fx="18.240929" fy="21.817987" gradientUnits="userSpaceOnUse"
                    xlink:href="#linearGradient4454" id="radialGradient1537" r="8.3085051"/>
    <radialGradient cx="15.414371" cy="13.078408" fx="15.414371" fy="13.078408"
                    gradientTransform="matrix(2.592963,0,0,2.252104,-25.05975,-18.941)" gradientUnits="userSpaceOnUse"
                    xlink:href="#linearGradient4467" id="radialGradient1539" r="6.6562500"/>
  </defs>
  <metadata>
    <rdf:RDF>
      <cc:Work rdf:about="">
        <dc:format>image/svg+xml</dc:format>
        <dc:type rdf:resource="http://purl.org/dc/dcmitype/StillImage"/>
        <dc:title/>
        <dc:date/>
        <dc:creator>
          <cc:Agent>
            <dc:title>@cat_in_136</dc:title>
          </cc:Agent>
        </dc:creator>
        <dc:source/>
        <dc:subject>
          <rdf:Bag/>
        </dc:subject>
        <cc:license rdf:resource="http://creativecommons.org/publicdomain/zero/1.0/"/>
        <dc:description>Icon layout of book and magnifier is totally inspired by aDice.
          Artwork is composited from several number of tango icons created by Jakub Steiner &lt;http://jimmac.musichall.cz&gt;
          under Public Domain.
        </dc:description>
      </cc:Work>
      <cc:License rdf:about="http://creativecommons.org/publicdomain/zero/1.0/">
        <cc:permits rdf:resource="http://creativecommons.org/ns#Reproduction"/>
        <cc:permits rdf:resource="http://creativecommons.org/ns#Distribution"/>
        <cc:permits rdf:resource="http://creativecommons.org/ns#DerivativeWorks"/>
      </cc:License>
    </rdf:RDF>
  </metadata>
  <g>
    <g style="display:inline" transform="matrix(2.105461e-2,0,0,2.086758e-2,42.85172,40.44648)">
      <rect height="478.35718"
            style="opacity:0.40206185;color:black;fill:url(#linearGradient6715);fill-opacity:1;fill-rule:nonzero;stroke:none;stroke-width:1;stroke-linecap:round;stroke-linejoin:miter;marker:none;marker-start:none;marker-mid:none;marker-end:none;stroke-miterlimit:4;stroke-dasharray:none;stroke-dashoffset:0;stroke-opacity:1;visibility:visible;display:inline;overflow:visible"
            width="1339.6335" x="-1559.2523" y="-150.69685"/>
      <path d="M -219.61876,-150.68038 C -219.61876,-150.68038 -219.61876,327.65041 -219.61876,327.65041 C -76.744594,328.55086 125.78146,220.48075 125.78138,88.454235 C 125.78138,-43.572302 -33.655436,-150.68036 -219.61876,-150.68038 z "
            style="opacity:0.40206185;color:black;fill:url(#radialGradient6717);fill-opacity:1;fill-rule:nonzero;stroke:none;stroke-width:1;stroke-linecap:round;stroke-linejoin:miter;marker:none;marker-start:none;marker-mid:none;marker-end:none;stroke-miterlimit:4;stroke-dasharray:none;stroke-dashoffset:0;stroke-opacity:1;visibility:visible;display:inline;overflow:visible"/>
      <path d="M -1559.2523,-150.68038 C -1559.2523,-150.68038 -1559.2523,327.65041 -1559.2523,327.65041 C -1702.1265,328.55086 -1904.6525,220.48075 -1904.6525,88.454235 C -1904.6525,-43.572302 -1745.2157,-150.68036 -1559.2523,-150.68038 z "
            style="opacity:0.40206185;color:black;fill:url(#radialGradient6719);fill-opacity:1;fill-rule:nonzero;stroke:none;stroke-width:1;stroke-linecap:round;stroke-linejoin:miter;marker:none;marker-start:none;marker-mid:none;marker-end:none;stroke-miterlimit:4;stroke-dasharray:none;stroke-dashoffset:0;stroke-opacity:1;visibility:visible;display:inline;overflow:visible"/>
    </g>
    <path d="M 6.3643222,5.5185897 C 6.4551049,3.6036003 7.3719758,2.5542814 9.0788784,2.549044 L 38.405776,2.4590577 C 38.652361,2.4583011 38.974317,2.6592071 38.999012,2.9089888 L 42.257491,35.867228 L 40.942189,35.923862 L 41.571429,42.369516 C 41.632441,42.994499 41.390059,43.52882 40.5,43.533035 L 9.7893046,43.678474 C 7.25676,43.690468 4.6538454,41.59976 4.7759337,39.024403 L 6.3643222,5.5185897 z "
          style="color:#000000;fill:#5b6b94;fill-opacity:1;fill-rule:nonzero;stroke:#364878;stroke-width:1.00000012;stroke-linecap:round;stroke-linejoin:round;marker:none;marker-start:none;marker-mid:none;marker-end:none;stroke-miterlimit:4;stroke-dashoffset:0;stroke-opacity:1;visibility:visible;display:inline;overflow:visible"/>
    <path d="M 40.125,34.875 L 10.9375,35 C 9.3809819,35.177868 8.125,36.39612 8.125,38 C 8.125,39.60388 9.3809819,40.822132 10.9375,41 L 40.125,41.125 L 40.125,41.0625 C 38.469378,40.984348 37.125,39.674851 37.125,38 C 37.125,36.325149 38.469378,35.015652 40.125,34.9375 L 40.125,34.875 z "
          style="color:#000000;fill:url(#linearGradient2813);fill-opacity:1;fill-rule:nonzero;stroke:none;stroke-width:1;stroke-linecap:round;stroke-linejoin:round;marker:none;marker-start:none;marker-mid:none;marker-end:none;stroke-miterlimit:4;stroke-dashoffset:0;stroke-opacity:1;visibility:visible;display:inline;overflow:visible"/>
    <path d="M 9.6875,2.8125 C 7.9805897,2.8125 7.050103,3.8215062 6.96875,5.6738658 L 5.3125,37.825772 C 5.22054,40.904199 7.1393732,42.654485 9.125,43.15625 C 4.875,41.525579 5.4375,34.164455 10.75,34.195222 L 41.648286,34.195222 L 38.335786,3.2432432 C 38.310025,3.0025304 37.987878,2.8125 37.742036,2.8125 L 9.6875,2.8125 z "
          style="color:#000000;fill:url(#linearGradient2100);fill-opacity:1;fill-rule:nonzero;stroke:none;stroke-width:1;stroke-linecap:round;stroke-linejoin:round;marker:none;marker-start:none;marker-mid:none;marker-end:none;stroke-miterlimit:4;stroke-dashoffset:0;stroke-opacity:1;visibility:visible;display:inline;overflow:visible"/>
    <rect height="29.604792"
          style="opacity:0.48044691;color:#000000;fill:url(#linearGradient2801);fill-opacity:1;fill-rule:nonzero;stroke:none;stroke-width:1;stroke-linecap:round;stroke-linejoin:round;marker:none;marker-start:none;marker-mid:none;marker-end:none;stroke-miterlimit:4;stroke-dashoffset:0;stroke-opacity:0.60818715;visibility:visible;display:inline;overflow:visible"
          transform="matrix(1.000000,0.000000,-3.582731e-2,0.999358,0.000000,0.000000)" width="2" x="9.7886267"
          y="3.968539"/>
    <path d="M 9.8751008,3.3336831 C 8.1912014,3.3336831 7.5384236,4.0658459 7.4581673,5.887831 L 6.1592633,35.777198 C 7.0925916,34.170451 8.5988591,33.594437 11.011665,33.594437 L 40.963081,33.594437 L 38.137179,3.7573631 C 38.114727,3.5203092 37.793961,3.3336831 37.551434,3.3336831 L 9.8751008,3.3336831 z "
          style="color:#000000;fill:none;fill-opacity:1;fill-rule:nonzero;stroke:url(#linearGradient2112);stroke-width:1.00000012;stroke-linecap:round;stroke-linejoin:miter;marker:none;marker-start:none;marker-mid:none;marker-end:none;stroke-miterlimit:20;stroke-dasharray:none;stroke-dashoffset:0;stroke-opacity:1;visibility:visible;display:inline;overflow:visible"/>
    <g transform="translate(-82.649118,-0.67784767)">
      <g style="display:inline" transform="translate(13.055396,43.87652)">
        <g transform="matrix(0.665377,0,0,0.665377,85.046924,-32.614936)">
          <ellipse cx="24.130018" cy="37.967922" rx="16.528622" ry="3.9332814"
                   style="color:#000000;display:inline;overflow:visible;visibility:visible;opacity:0.171123;fill:url(#radialGradient1527);fill-opacity:1;fill-rule:evenodd;stroke:none;stroke-width:1;stroke-linecap:round;stroke-linejoin:miter;stroke-miterlimit:10;stroke-dasharray:none;stroke-dashoffset:0;stroke-opacity:1;marker:none;marker-start:none;marker-mid:none;marker-end:none"
                   transform="matrix(1.446431,0,0,1.51999,-10.97453,-17.75168)"/>
          <path d="m 18.627569,3.1435548 c -8.13913,0 -14.7448008,6.6056711 -14.7448008,14.7448012 0,8.13913 6.6056708,14.744802 14.7448008,14.744802 3.479555,0 6.551001,-1.384393 9.073723,-3.402647 -0.205377,1.006881 -0.07803,2.035368 0.756144,2.759925 l 10.964084,9.52741 c 1.233416,1.071329 3.087462,0.93096 4.15879,-0.302457 1.071328,-1.233418 0.930959,-3.087462 -0.302457,-4.15879 L 32.313769,27.529188 c -0.671527,-0.583279 -1.492878,-0.755969 -2.306238,-0.642722 1.9867,-2.512422 3.364839,-5.548803 3.364839,-8.99811 0,-8.1391301 -6.605671,-14.7448012 -14.744801,-14.7448012 z m -0.07562,1.2261833 c 7.639459,0 13.291775,4.7889505 13.291775,13.2917749 0,8.675113 -5.81669,13.291775 -13.291775,13.291775 -7.302949,0 -13.2917734,-5.478092 -13.2917734,-13.291775 0,-7.9841069 5.8246384,-13.291775 13.2917734,-13.2917749 z"
                style="color:#000000;display:inline;overflow:visible;visibility:visible;opacity:1;fill:#dcdcdc;fill-opacity:1;fill-rule:evenodd;stroke:url(#linearGradient1529);stroke-width:3.00582;stroke-linecap:round;stroke-linejoin:miter;stroke-miterlimit:10;stroke-dasharray:none;stroke-dashoffset:0;stroke-opacity:1;marker:none;marker-start:none;marker-mid:none;marker-end:none"/>
          <path d="m 18.602905,3.0803551 c -8.16544,0 -14.7924642,6.627024 -14.7924642,14.7924639 0,8.16544 6.6270242,14.792464 14.7924642,14.792464 3.490803,0 6.572177,-1.388867 9.103055,-3.413645 -0.206041,1.010136 -0.07829,2.041947 0.758587,2.768846 l 10.999526,9.558207 c 1.237403,1.074792 3.097442,0.93397 4.172233,-0.303435 1.074791,-1.237404 0.933968,-3.097442 -0.303435,-4.172233 L 32.333346,27.544815 c -0.673698,-0.585164 -1.497704,-0.758413 -2.313693,-0.644799 1.993122,-2.520544 3.375716,-5.56674 3.375716,-9.027197 0,-8.1654399 -6.627024,-14.7924639 -14.792464,-14.7924639 z m -0.07586,3.1860692 c 6.281108,2e-7 11.378818,5.0977107 11.378818,11.3788187 0,6.281108 -5.09771,11.378818 -11.378818,11.378818 -6.281108,0 -11.3788184,-5.09771 -11.3788184,-11.378818 2e-7,-6.281108 5.0977104,-11.3788187 11.3788184,-11.3788187 z"
                style="color:#000000;display:inline;overflow:visible;visibility:visible;opacity:1;fill:#dcdcdc;fill-opacity:1;fill-rule:evenodd;stroke:none;stroke-width:1;stroke-linecap:round;stroke-linejoin:miter;stroke-miterlimit:10;stroke-dasharray:none;stroke-dashoffset:0;stroke-opacity:1;marker:none;marker-start:none;marker-mid:none;marker-end:none"/>
          <path d="m 39.507004,41.57769 c -0.478672,-2.273187 1.39733,-4.811422 3.584053,-4.788375 0,0 -10.760367,-9.258111 -10.760367,-9.258111 -2.944791,-0.05671 -4.269502,2.272616 -3.776814,4.599922 z"
                style="color:#000000;display:inline;overflow:visible;visibility:visible;opacity:1;fill:url(#linearGradient1531);fill-opacity:1;fill-rule:evenodd;stroke:none;stroke-width:1;stroke-linecap:round;stroke-linejoin:miter;stroke-miterlimit:10;stroke-dasharray:none;stroke-dashoffset:0;stroke-opacity:1;marker:none;marker-start:none;marker-mid:none;marker-end:none"/>
          <circle cx="17.500893" cy="18.920233" r="11.048544"
                  style="color:#000000;display:inline;overflow:visible;visibility:visible;opacity:1;fill:none;fill-opacity:1;fill-rule:evenodd;stroke:url(#linearGradient1533);stroke-width:1.20643;stroke-linecap:round;stroke-linejoin:miter;stroke-miterlimit:10;stroke-dasharray:none;stroke-dashoffset:0;stroke-opacity:1;marker:none;marker-start:none;marker-mid:none;marker-end:none"
                  transform="matrix(1.245743,0,0,1.245743,-3.425346,-6.177033)"/>
          <rect height="4.4404783" rx="3.2112026" ry="2.837393"
                style="color:#000000;display:inline;overflow:visible;visibility:visible;opacity:0.433155;fill:none;fill-opacity:1;fill-rule:evenodd;stroke:#ffffff;stroke-width:1.50295;stroke-linecap:round;stroke-linejoin:miter;stroke-miterlimit:10;stroke-dasharray:none;stroke-dashoffset:0;stroke-opacity:1;marker:none;marker-start:none;marker-mid:none;marker-end:none"
                transform="matrix(0.752986,0.658037,-0.648902,0.760872,0,0)" width="19.048439" x="40.373337"
                y="0.14086054"/>
          <circle cx="17.589281" cy="18.478292" r="8.3085051"
                  style="color:#000000;visibility:visible;fill:url(#radialGradient1537);fill-opacity:1;fill-rule:evenodd;stroke:#3063a3;stroke-width:1.07457;stroke-linecap:round;stroke-linejoin:miter;stroke-miterlimit:10;stroke-dashoffset:0;stroke-opacity:1;marker:none;marker-start:none;marker-mid:none;marker-end:none"
                  transform="matrix(1.398614,0,0,1.398614,-6.224338,-8.298958)"/>
          <path d="m 18.156915,7.3966938 c -5.20759,0 -9.4245469,4.2169572 -9.4245469,9.4245472 0,1.503975 0.4203072,2.887773 1.0471719,4.149903 1.25238,0.461613 2.582757,0.775683 3.994767,0.775683 6.170955,0 11.099282,-4.861637 11.480106,-10.937129 C 23.523449,8.7641668 21.044374,7.3966938 18.156915,7.3966938 Z"
                style="color:#000000;display:inline;overflow:visible;visibility:visible;opacity:0.834225;fill:url(#radialGradient1539);fill-opacity:1;fill-rule:evenodd;stroke:none;stroke-width:1;stroke-linecap:round;stroke-linejoin:miter;stroke-miterlimit:10;stroke-dasharray:none;stroke-dashoffset:0;stroke-opacity:1;marker:none;marker-start:none;marker-mid:none;marker-end:none"/>
        </g>
      </g>
    </g>
  </g>
</svg>
